<svg width="30" height="30" viewBox="0 0 30 30" fill="none" xmlns="http://www.w3.org/2000/svg">
<path d="M26.3 25.55L26.8554 26.054L26.8557 26.0536L26.3 25.55ZM24.25 27.025L23.9656 26.331L23.9615 26.3327L24.25 27.025ZM13.4375 24.1125L12.9951 24.7181L12.9961 24.7188L13.4375 24.1125ZM9.3375 20.6125L8.80459 21.1403L8.80974 21.1454L9.3375 20.6125ZM5.85 16.525L5.24114 16.963L5.24368 16.9664L5.85 16.525ZM3.4 12.2625L2.70877 12.5535L2.7097 12.5557L3.4 12.2625ZM2.95 5.7625L3.64637 6.04105L3.64792 6.03709L2.95 5.7625ZM4.3875 3.675L4.90217 4.22055L4.90796 4.21508L4.91364 4.20949L4.3875 3.675ZM8 2.725L7.67541 3.40122L7.68571 3.40597L8 2.725ZM8.8375 3.425L8.22082 3.85194L8.22581 3.85898L8.8375 3.425ZM11.7375 7.5125L11.1258 7.94649L11.1288 7.95073L11.7375 7.5125ZM12.2375 8.3875L11.5432 8.67151L11.5481 8.68294L12.2375 8.3875ZM12.15 10.0375L11.5094 9.64754L11.503 9.6579L11.4971 9.66846L12.15 10.0375ZM11.45 10.925L10.9197 10.3947L10.9145 10.3998L10.9095 10.405L11.45 10.925ZM10.5 11.9125L11.0303 12.4428L11.0355 12.4377L11.0405 12.4325L10.5 11.9125ZM10.3375 12.7L9.60989 12.8819L9.62025 12.9233L9.63525 12.9633L10.3375 12.7ZM10.4375 12.95L9.72599 13.1872L9.7471 13.2505L9.77908 13.3091L10.4375 12.95ZM11.6 14.55L11.0274 15.0345L11.0329 15.0408L11.6 14.55ZM13.4125 16.525L12.8771 17.0503L12.8821 17.0553L12.8871 17.0603L13.4125 16.525ZM15.4 18.3625L14.9146 18.9342L14.9155 18.935L15.4 18.3625ZM17.0125 19.5125L16.6616 20.1753L16.6969 20.194L16.734 20.2089L17.0125 19.5125ZM17.2375 19.6125L16.9421 20.3019L16.958 20.3087L16.9742 20.3147L17.2375 19.6125ZM18.0625 19.45L17.5357 18.9162L17.5322 18.9197L18.0625 19.45ZM19.0125 18.5125L19.5393 19.0463L19.5428 19.0428L19.0125 18.5125ZM19.9125 17.8125L20.2594 18.4774L20.2813 18.466L20.3025 18.4531L19.9125 17.8125ZM22.4375 18.2L22.8717 17.5885L22.8655 17.5841L22.8592 17.5798L22.4375 18.2ZM26.575 21.1375L26.1408 21.7491L26.1481 21.7541L26.575 21.1375ZM27.2625 21.9375L27.9589 21.659L27.9541 21.6471L27.949 21.6354L27.2625 21.9375ZM22.375 11.25C22.375 11.6642 22.7108 12 23.125 12C23.5392 12 23.875 11.6642 23.875 11.25H22.375ZM21.6625 8.4125L21.1126 8.92253L21.1142 8.92424L21.6625 8.4125ZM18.75 6.125C18.3358 6.125 18 6.46079 18 6.875C18 7.28921 18.3358 7.625 18.75 7.625V6.125ZM26.75 11.25C26.75 11.6642 27.0858 12 27.5 12C27.9142 12 28.25 11.6642 28.25 11.25H26.75ZM18.75 1.75C18.3358 1.75 18 2.08579 18 2.5C18 2.91421 18.3358 3.25 18.75 3.25V1.75ZM26.7125 22.9125C26.7125 23.25 26.6378 23.6033 26.4718 23.9547L27.8282 24.5953C28.0872 24.0467 28.2125 23.475 28.2125 22.9125H26.7125ZM26.4718 23.9547C26.2891 24.3417 26.0544 24.7042 25.7443 25.0464L26.8557 26.0536C27.2706 25.5958 27.5859 25.1083 27.8282 24.5953L26.4718 23.9547ZM25.7446 25.046C25.1981 25.6482 24.613 26.0657 23.9656 26.331L24.5344 27.719C25.412 27.3593 26.1769 26.8018 26.8554 26.054L25.7446 25.046ZM23.9615 26.3327C23.3064 26.6057 22.5923 26.75 21.8125 26.75V28.25C22.7827 28.25 23.6936 28.0693 24.5385 27.7173L23.9615 26.3327ZM21.8125 26.75C20.6561 26.75 19.3937 26.4779 18.0315 25.8975L17.4435 27.2775C18.9563 27.9221 20.4189 28.25 21.8125 28.25V26.75ZM18.0315 25.8975C16.6515 25.3095 15.263 24.5139 13.8789 23.5062L12.9961 24.7188C14.462 25.7861 15.9485 26.6405 17.4435 27.2775L18.0315 25.8975ZM13.8799 23.5069C12.4733 22.4794 11.1393 21.3414 9.86526 20.0796L8.80974 21.1454C10.1357 22.4586 11.5267 23.6456 12.9951 24.7181L13.8799 23.5069ZM9.87039 20.0847C8.6085 18.8106 7.47073 17.4768 6.45632 16.0836L5.24368 16.9664C6.30427 18.4232 7.4915 19.8144 8.80461 21.1403L9.87039 20.0847ZM6.45885 16.0871C5.46025 14.6987 4.6649 13.322 4.0903 11.9693L2.7097 12.5557C3.3351 14.028 4.18975 15.5013 5.24115 16.9629L6.45885 16.0871ZM4.09123 11.9715C3.5228 10.6215 3.25 9.35799 3.25 8.175H1.75C1.75 9.59201 2.0772 11.0535 2.70877 12.5535L4.09123 11.9715ZM3.25 8.175C3.25 7.41388 3.38414 6.69658 3.64636 6.04104L2.25364 5.48396C1.91586 6.32842 1.75 7.23612 1.75 8.175H3.25ZM3.64792 6.03709C3.90506 5.38355 4.31491 4.77456 4.90217 4.22055L3.87283 3.12945C3.13509 3.82544 2.59494 4.61645 2.25208 5.48791L3.64792 6.03709ZM4.91364 4.20949C5.60043 3.53343 6.29437 3.25 6.9875 3.25V1.75C5.83063 1.75 4.77457 2.24157 3.86136 3.14051L4.91364 4.20949ZM6.9875 3.25C7.23248 3.25 7.47064 3.30283 7.67545 3.40114L8.32455 2.04886C7.90436 1.84717 7.44252 1.75 6.9875 1.75V3.25ZM7.68571 3.40597C7.89929 3.50455 8.07831 3.64601 8.22086 3.85191L9.45414 2.99809C9.14669 2.55399 8.75071 2.24545 8.31429 2.04403L7.68571 3.40597ZM8.22581 3.85898L11.1258 7.94648L12.3492 7.07852L9.44919 2.99102L8.22581 3.85898ZM11.1288 7.95073C11.3267 8.22549 11.4575 8.46154 11.5433 8.67147L12.9317 8.10353C12.7925 7.76346 12.5983 7.42451 12.3462 7.07427L11.1288 7.95073ZM11.5481 8.68294C11.6314 8.87722 11.6625 9.03825 11.6625 9.15H13.1625C13.1625 8.78675 13.0686 8.42278 12.9269 8.09206L11.5481 8.68294ZM11.6625 9.15C11.6625 9.29903 11.6201 9.46553 11.5094 9.64754L12.7906 10.4275C13.0299 10.0345 13.1625 9.60097 13.1625 9.15H11.6625ZM11.4971 9.66846C11.3765 9.88185 11.1857 10.1287 10.9197 10.3947L11.9803 11.4553C12.3143 11.1213 12.5985 10.7682 12.8029 10.4065L11.4971 9.66846ZM10.9095 10.405L9.95951 11.3925L11.0405 12.4325L11.9905 11.445L10.9095 10.405ZM9.96967 11.3822C9.67991 11.6719 9.55 12.0306 9.55 12.4125H11.05C11.05 12.4016 11.0509 12.3977 11.0506 12.3993C11.0502 12.4012 11.049 12.4071 11.0457 12.4153C11.0424 12.4237 11.0383 12.4313 11.0343 12.4373C11.0304 12.4431 11.0283 12.4449 11.0303 12.4428L9.96967 11.3822ZM9.55 12.4125C9.55 12.5835 9.57258 12.7327 9.60989 12.8819L11.0651 12.5181C11.0524 12.4673 11.05 12.4415 11.05 12.4125H9.55ZM9.63525 12.9633C9.66057 13.0309 9.68599 13.09 9.70146 13.1266C9.71949 13.1692 9.72404 13.1813 9.72599 13.1872L11.149 12.7128C11.126 12.6437 11.0993 12.5808 11.0829 12.5421C11.064 12.4975 11.0519 12.4691 11.0397 12.4367L9.63525 12.9633ZM9.77908 13.3091C10.0395 13.7866 10.4642 14.3688 11.0275 15.0345L12.1725 14.0655C11.6358 13.4312 11.2855 12.9384 11.0959 12.5909L9.77908 13.3091ZM11.0329 15.0408C11.603 15.6996 12.2137 16.3741 12.8771 17.0503L13.9479 15.9997C13.3113 15.3509 12.722 14.7004 12.1671 14.0592L11.0329 15.0408ZM12.8871 17.0603C13.5682 17.7287 14.2326 18.3552 14.9146 18.9342L15.8854 17.7908C15.2424 17.2448 14.6068 16.6463 13.9378 15.9897L12.8871 17.0603ZM14.9155 18.935C15.5877 19.5038 16.1711 19.9157 16.6616 20.1753L17.3634 18.8497C17.0039 18.6593 16.5123 18.3212 15.8845 17.79L14.9155 18.935ZM16.734 20.2089C16.7453 20.2134 16.7632 20.2213 16.8031 20.2396C16.838 20.2556 16.8879 20.2787 16.9421 20.3019L17.5329 18.9231C17.4996 18.9088 17.4683 18.8944 17.4281 18.876C17.393 18.8599 17.3422 18.8366 17.291 18.8161L16.734 20.2089ZM16.9742 20.3147C17.1838 20.3933 17.3794 20.4125 17.55 20.4125V18.9125C17.5211 18.9125 17.5069 18.9109 17.5014 18.91C17.4972 18.9094 17.4982 18.9093 17.5008 18.9103L16.9742 20.3147ZM17.55 20.4125C17.9721 20.4125 18.3224 20.2508 18.5928 19.9803L17.5322 18.9197C17.526 18.9259 17.5238 18.9271 17.5259 18.9256C17.5283 18.924 17.5333 18.9209 17.5405 18.9178C17.5477 18.9147 17.5538 18.9131 17.5574 18.9124C17.5607 18.9117 17.5588 18.9125 17.55 18.9125V20.4125ZM18.5893 19.9838L19.5393 19.0463L18.4857 17.9787L17.5357 18.9162L18.5893 19.9838ZM19.5428 19.0428C19.825 18.7607 20.0639 18.5795 20.2594 18.4774L19.5656 17.1476C19.1861 17.3455 18.825 17.6393 18.4822 17.9822L19.5428 19.0428ZM20.3025 18.4531C20.4872 18.3407 20.6413 18.3 20.8 18.3V16.8C20.3337 16.8 19.9128 16.9343 19.5225 17.1719L20.3025 18.4531ZM20.8 18.3C20.9276 18.3 21.0813 18.326 21.2785 18.4067L21.8465 17.0183C21.4937 16.874 21.1474 16.8 20.8 16.8V18.3ZM21.2785 18.4067C21.4906 18.4934 21.7311 18.6266 22.0158 18.8202L22.8592 17.5798C22.5189 17.3484 22.1844 17.1566 21.8465 17.0183L21.2785 18.4067ZM22.0033 18.8115L26.1408 21.749L27.0092 20.526L22.8717 17.5885L22.0033 18.8115ZM26.1481 21.7541C26.3766 21.9123 26.5023 22.072 26.576 22.2396L27.949 21.6354C27.7477 21.178 27.4234 20.8127 27.0019 20.5209L26.1481 21.7541ZM26.5661 22.216C26.6637 22.46 26.7125 22.6774 26.7125 22.9125H28.2125C28.2125 22.4476 28.1113 22.04 27.9589 21.659L26.5661 22.216ZM23.875 11.25C23.875 10.7052 23.6706 10.1066 23.3889 9.55865C23.0994 8.99555 22.6929 8.41736 22.2108 7.90076L21.1142 8.92424C21.507 9.34514 21.8319 9.8107 22.0549 10.2445C22.2857 10.6934 22.375 11.0448 22.375 11.25H23.875ZM22.2124 7.90247C21.3498 6.97247 20.1021 6.125 18.75 6.125V7.625C19.4979 7.625 20.3752 8.12753 21.1126 8.92253L22.2124 7.90247ZM28.25 11.25C28.25 5.99829 24.0017 1.75 18.75 1.75V3.25C23.1733 3.25 26.75 6.82671 26.75 11.25H28.25Z" fill="black"/>
</svg>
