<svg width="30" height="30" viewBox="0 0 30 30" fill="none" xmlns="http://www.w3.org/2000/svg">
<path d="M15 14.2001V13.9376C15 13.0876 15.525 12.6376 16.05 12.2751C16.5625 11.9251 17.075 11.4751 17.075 10.6501C17.075 9.50013 16.15 8.57509 15 8.57509C13.85 8.57509 12.925 9.50013 12.925 10.6501M14.9944 17.1876H15.0056M21.25 23.0377H16.25L10.6875 26.7376C9.86248 27.2876 8.75 26.7002 8.75 25.7002V23.0377C5 23.0377 2.5 20.5377 2.5 16.7877V9.2876C2.5 5.5376 5 3.0376 8.75 3.0376H21.25C25 3.0376 27.5 5.5376 27.5 9.2876V16.7877C27.5 20.5377 25 23.0377 21.25 23.0377Z" stroke="black" stroke-width="1.5" stroke-linecap="round" stroke-linejoin="round"/>
</svg>
