<svg width="80" height="81" viewBox="0 0 80 81" fill="none" xmlns="http://www.w3.org/2000/svg">
<g filter="url(#filter0_d_137_35)">
<path d="M72 55.2001V57.2001C73.1046 57.2001 74 56.3046 74 55.2001H72ZM72 37.6001H74C74 36.4955 73.1046 35.6001 72 35.6001V37.6001ZM24.5185 21.5177C23.5893 22.115 23.3203 23.3524 23.9176 24.2816C24.5149 25.2107 25.7524 25.4797 26.6815 24.8824L24.5185 21.5177ZM48 8.80005L49.5787 7.57217C48.9432 6.75508 47.7892 6.55793 46.9185 7.11769L48 8.80005ZM57.6213 24.4279C58.2994 25.2998 59.556 25.4569 60.4279 24.7788C61.2998 24.1006 61.4568 22.8441 60.7787 21.9722L57.6213 24.4279ZM72 53.2001H61.6V57.2001H72V53.2001ZM61.6 39.6001H72V35.6001H61.6V39.6001ZM70 37.6001V55.2001H74V37.6001H70ZM54.8 46.4001C54.8 42.6445 57.8445 39.6001 61.6 39.6001V35.6001C55.6353 35.6001 50.8 40.4354 50.8 46.4001H54.8ZM61.6 53.2001C57.8445 53.2001 54.8 50.1556 54.8 46.4001H50.8C50.8 52.3647 55.6353 57.2001 61.6 57.2001V53.2001ZM26.6815 24.8824L49.0815 10.4824L46.9185 7.11769L24.5185 21.5177L26.6815 24.8824ZM46.4213 10.0279L57.6213 24.4279L60.7787 21.9722L49.5787 7.57217L46.4213 10.0279ZM11.2 25.2001H65.6V21.2001H11.2V25.2001ZM65.6 69.2001H11.2V73.2001H65.6V69.2001ZM10 68.0001V26.4001H6V68.0001H10ZM11.2 69.2001C10.5373 69.2001 10 68.6628 10 68.0001H6C6 70.8719 8.32812 73.2001 11.2 73.2001V69.2001ZM66.8 68.0001C66.8 68.6628 66.2627 69.2001 65.6 69.2001V73.2001C68.4719 73.2001 70.8 70.8719 70.8 68.0001H66.8ZM65.6 25.2001C66.2627 25.2001 66.8 25.7373 66.8 26.4001H70.8C70.8 23.5282 68.4719 21.2001 65.6 21.2001V25.2001ZM11.2 21.2001C8.32812 21.2001 6 23.5282 6 26.4001H10C10 25.7373 10.5373 25.2001 11.2 25.2001V21.2001ZM66.8 57.6001V68.0001H70.8V57.6001H66.8ZM66.8 26.4001V34.8001H70.8V26.4001H66.8Z" fill="black"/>
</g>
<defs>
<filter id="filter0_d_137_35" x="-2" y="0" width="84" height="87" filterUnits="userSpaceOnUse" color-interpolation-filters="sRGB">
<feFlood flood-opacity="0" result="BackgroundImageFix"/>
<feColorMatrix in="SourceAlpha" type="matrix" values="0 0 0 0 0 0 0 0 0 0 0 0 0 0 0 0 0 0 127 0" result="hardAlpha"/>
<feOffset dy="5"/>
<feGaussianBlur stdDeviation="1"/>
<feComposite in2="hardAlpha" operator="out"/>
<feColorMatrix type="matrix" values="0 0 0 0 0 0 0 0 0 0 0 0 0 0 0 0 0 0 0.25 0"/>
<feBlend mode="normal" in2="BackgroundImageFix" result="effect1_dropShadow_137_35"/>
<feBlend mode="normal" in="SourceGraphic" in2="effect1_dropShadow_137_35" result="shape"/>
</filter>
</defs>
</svg>
